<svg width="1280" height="980" viewBox="0 0 1280 980" fill="none" xmlns="http://www.w3.org/2000/svg">
  <rect width="1280" height="980" rx="44" fill="#F8FAFC"/>
  <rect x="54" y="48" width="1172" height="884" rx="38" fill="url(#paint0_linear)" stroke="rgba(15,23,42,0.08)"/>
  <rect x="132" y="126" width="820" height="512" rx="30" fill="#0F172A"/>
  <rect x="132" y="126" width="820" height="74" rx="30" fill="#111C35"/>
  <circle cx="186" cy="163" r="9" fill="#F97316"/>
  <circle cx="216" cy="163" r="9" fill="#FACC15"/>
  <circle cx="246" cy="163" r="9" fill="#34D399"/>
  <rect x="176" y="252" width="318" height="38" rx="19" fill="rgba(255,255,255,0.92)"/>
  <rect x="176" y="314" width="256" height="16" rx="8" fill="rgba(255,255,255,0.38)"/>
  <rect x="176" y="350" width="210" height="16" rx="8" fill="rgba(255,255,255,0.25)"/>
  <rect x="176" y="408" width="210" height="56" rx="28" fill="#14B8A6"/>
  <rect x="414" y="408" width="196" height="56" rx="28" fill="rgba(255,255,255,0.1)" stroke="rgba(255,255,255,0.18)"/>
  <rect x="612" y="244" width="284" height="292" rx="26" fill="rgba(255,255,255,0.08)" stroke="rgba(255,255,255,0.14)"/>
  <rect x="648" y="286" width="102" height="102" rx="20" fill="rgba(20,184,166,0.2)"/>
  <rect x="772" y="286" width="88" height="18" rx="9" fill="rgba(255,255,255,0.85)"/>
  <rect x="772" y="320" width="70" height="14" rx="7" fill="rgba(255,255,255,0.35)"/>
  <rect x="648" y="420" width="212" height="18" rx="9" fill="rgba(255,255,255,0.25)"/>
  <rect x="648" y="454" width="174" height="18" rx="9" fill="rgba(255,255,255,0.16)"/>
  <rect x="648" y="488" width="138" height="18" rx="9" fill="rgba(255,255,255,0.12)"/>
  <g filter="url(#filter0_d)">
    <rect x="858" y="476" width="264" height="342" rx="34" fill="#FFFFFF"/>
    <rect x="886" y="524" width="208" height="192" rx="24" fill="url(#paint1_linear)"/>
    <rect x="918" y="574" width="144" height="18" rx="9" fill="#0F172A"/>
    <rect x="918" y="608" width="122" height="14" rx="7" fill="rgba(15,23,42,0.35)"/>
    <rect x="918" y="670" width="144" height="44" rx="22" fill="#0F172A"/>
    <rect x="918" y="738" width="144" height="14" rx="7" fill="rgba(15,23,42,0.18)"/>
  </g>
  <g filter="url(#filter1_d)">
    <rect x="848" y="138" width="252" height="176" rx="28" fill="rgba(255,255,255,0.8)"/>
    <rect x="882" y="178" width="92" height="92" rx="22" fill="url(#paint2_linear)"/>
    <rect x="996" y="188" width="70" height="16" rx="8" fill="#0F172A"/>
    <rect x="996" y="220" width="50" height="14" rx="7" fill="rgba(15,23,42,0.35)"/>
    <rect x="882" y="286" width="184" height="12" rx="6" fill="rgba(15,23,42,0.12)"/>
  </g>
  <defs>
    <filter id="filter0_d" x="822" y="450" width="336" height="414" filterUnits="userSpaceOnUse" color-interpolation-filters="sRGB">
      <feFlood flood-opacity="0" result="BackgroundImageFix"/>
      <feColorMatrix in="SourceAlpha" type="matrix" values="0 0 0 0 0 0 0 0 0 0 0 0 0 0 0 0 0 0 127 0" result="hardAlpha"/>
      <feOffset dy="10"/>
      <feGaussianBlur stdDeviation="18"/>
      <feColorMatrix type="matrix" values="0 0 0 0 0.0588235 0 0 0 0 0.0901961 0 0 0 0 0.164706 0 0 0 0.12 0"/>
      <feBlend mode="normal" in2="BackgroundImageFix" result="effect1_dropShadow_1_2"/>
      <feBlend mode="normal" in="SourceGraphic" in2="effect1_dropShadow_1_2" result="shape"/>
    </filter>
    <filter id="filter1_d" x="818" y="118" width="312" height="236" filterUnits="userSpaceOnUse" color-interpolation-filters="sRGB">
      <feFlood flood-opacity="0" result="BackgroundImageFix"/>
      <feColorMatrix in="SourceAlpha" type="matrix" values="0 0 0 0 0 0 0 0 0 0 0 0 0 0 0 0 0 0 127 0" result="hardAlpha"/>
      <feOffset dy="8"/>
      <feGaussianBlur stdDeviation="15"/>
      <feColorMatrix type="matrix" values="0 0 0 0 0.0588235 0 0 0 0 0.0901961 0 0 0 0 0.164706 0 0 0 0.1 0"/>
      <feBlend mode="normal" in2="BackgroundImageFix" result="effect1_dropShadow_1_2"/>
      <feBlend mode="normal" in="SourceGraphic" in2="effect1_dropShadow_1_2" result="shape"/>
    </filter>
    <linearGradient id="paint0_linear" x1="178" y1="76" x2="1178" y2="884" gradientUnits="userSpaceOnUse">
      <stop stop-color="#FFFFFF"/>
      <stop offset="0.5" stop-color="#EEF4FF"/>
      <stop offset="1" stop-color="#E5F6F4"/>
    </linearGradient>
    <linearGradient id="paint1_linear" x1="886" y1="524" x2="1094" y2="716" gradientUnits="userSpaceOnUse">
      <stop stop-color="#DBEAFE"/>
      <stop offset="1" stop-color="#CCFBF1"/>
    </linearGradient>
    <linearGradient id="paint2_linear" x1="882" y1="178" x2="974" y2="270" gradientUnits="userSpaceOnUse">
      <stop stop-color="#C7D2FE"/>
      <stop offset="1" stop-color="#99F6E4"/>
    </linearGradient>
  </defs>
</svg>
