<svg width="960" height="1040" viewBox="0 0 960 1040" fill="none" xmlns="http://www.w3.org/2000/svg">
  <rect width="960" height="1040" rx="40" fill="#F8FAFC"/>
  <rect x="52" y="56" width="856" height="928" rx="36" fill="url(#paint0_linear)" stroke="rgba(15,23,42,0.08)"/>
  <rect x="108" y="110" width="744" height="126" rx="28" fill="#FFFFFF"/>
  <circle cx="160" cy="173" r="28" fill="#14B8A6" fill-opacity="0.15"/>
  <path d="M150 174L159 183L173 163" stroke="#0F172A" stroke-width="4" stroke-linecap="round" stroke-linejoin="round"/>
  <rect x="210" y="146" width="268" height="18" rx="9" fill="#0F172A"/>
  <rect x="210" y="178" width="198" height="14" rx="7" fill="rgba(15,23,42,0.3)"/>
  <rect x="108" y="270" width="744" height="126" rx="28" fill="#FFFFFF"/>
  <circle cx="160" cy="333" r="28" fill="#6366F1" fill-opacity="0.14"/>
  <path d="M149 343H171M160 322V344" stroke="#0F172A" stroke-width="4" stroke-linecap="round"/>
  <rect x="210" y="306" width="300" height="18" rx="9" fill="#0F172A"/>
  <rect x="210" y="338" width="256" height="14" rx="7" fill="rgba(15,23,42,0.3)"/>
  <rect x="108" y="430" width="744" height="126" rx="28" fill="#FFFFFF"/>
  <circle cx="160" cy="493" r="28" fill="#0F172A" fill-opacity="0.08"/>
  <path d="M150 494H170" stroke="#0F172A" stroke-width="4" stroke-linecap="round"/>
  <rect x="210" y="466" width="282" height="18" rx="9" fill="#0F172A"/>
  <rect x="210" y="498" width="232" height="14" rx="7" fill="rgba(15,23,42,0.3)"/>
  <rect x="108" y="590" width="744" height="338" rx="32" fill="#0F172A"/>
  <rect x="156" y="646" width="250" height="28" rx="14" fill="rgba(255,255,255,0.9)"/>
  <rect x="156" y="694" width="336" height="16" rx="8" fill="rgba(255,255,255,0.38)"/>
  <rect x="156" y="728" width="294" height="16" rx="8" fill="rgba(255,255,255,0.22)"/>
  <rect x="156" y="786" width="174" height="48" rx="24" fill="#14B8A6"/>
  <rect x="510" y="646" width="268" height="218" rx="26" fill="rgba(255,255,255,0.08)" stroke="rgba(255,255,255,0.14)"/>
  <rect x="544" y="684" width="94" height="94" rx="18" fill="rgba(20,184,166,0.22)"/>
  <rect x="658" y="694" width="78" height="16" rx="8" fill="rgba(255,255,255,0.92)"/>
  <rect x="658" y="726" width="56" height="12" rx="6" fill="rgba(255,255,255,0.35)"/>
  <rect x="544" y="808" width="192" height="14" rx="7" fill="rgba(255,255,255,0.18)"/>
  <defs>
    <linearGradient id="paint0_linear" x1="132" y1="84" x2="874" y2="948" gradientUnits="userSpaceOnUse">
      <stop stop-color="#FDFEFF"/>
      <stop offset="1" stop-color="#EEF6FF"/>
    </linearGradient>
  </defs>
</svg>
